<?xml version="1.0" encoding="utf-8"?>
<!-- Generator: Adobe Illustrator 25.4.1, SVG Export Plug-In . SVG Version: 6.00 Build 0)  -->
<svg version="1.1" xmlns="http://www.w3.org/2000/svg" xmlns:xlink="http://www.w3.org/1999/xlink" x="0px" y="0px"
	 viewBox="0 0 240.1 302" style="enable-background:new 0 0 240.1 302;" xml:space="preserve">
<style type="text/css">
	.st0{fill:#FFDD00;}
	.st1{fill:#768592;}
</style>
<g id="Capa_2">
</g>
<g id="Capa_1">
	<g>
		<path class="st0" d="M116.3,17.2c-45.3,0-84.1,28.4-99.5,68.4h15.9c14.5-31.7,46.5-53.7,83.6-53.7c50.7,0,91.9,41.2,91.9,91.9
			c0,50.7-41.2,91.9-91.9,91.9c-37.1,0-69.1-22.1-83.6-53.7H16.9c15.4,39.9,54.2,68.4,99.4,68.4c58.8,0,106.6-47.8,106.6-106.5
			C222.9,65,175.1,17.2,116.3,17.2z"/>
		<g>
			<g>
				<g>
					<path class="st1" d="M99.4,96.1h20.7l24.4,55.2h-18.5l-4.7-11.8H97.5l-5,11.8H75.3L99.4,96.1z M109.8,107.5h-0.2l-8.2,21.6
						h15.9L109.8,107.5z"/>
				</g>
			</g>
			<g>
				<g>
					<path class="st1" d="M201.3,149.7c-10.7,2.4-18.7,2.5-24.5,2.5c-16.9,0-36.4-7.4-36.4-28.3c0-20.8,16.8-28.8,40.1-28.8
						c4.2,0,13,0.4,19.2,2.4l-1.4,12c-5.3-2.7-11.5-3.6-15.4-3.6c-13.7,0-25,5-25,17.9c0,10.8,8.8,17.4,21.2,17.4
						c2.3,0,4.5-0.3,6-0.9v-10.9H175v-10.4h26.3V149.7z"/>
				</g>
			</g>
			<g>
				<g>
					<path class="st1" d="M36.9,96.1h20.2c19.4,0,28.4,5.7,28.4,18.1c0,11.1-9.4,17.8-25.2,17.8h-6.5v19.3H36.9V96.1z M53.8,121.6
						h4.4c5.8,0,10.5-1.8,10.5-7.6c0-5.6-4.6-7.4-10.5-7.4h-4.4V121.6z"/>
				</g>
			</g>
		</g>
		<g>
			<g>
				<g>
					<g>
						<path class="st1" d="M171.3,255.9h10.4l12.3,27.8h-9.3l-2.4-5.9h-12l-2.5,5.9h-8.6L171.3,255.9z M176.5,261.7L176.5,261.7
							l-4.2,10.9h8L176.5,261.7z"/>
					</g>
				</g>
				<g>
					<g>
						<path class="st1" d="M222.6,282.9c-5.4,1.2-9.4,1.3-12.4,1.3c-8.5,0-18.3-3.7-18.3-14.3c0-10.5,8.5-14.5,20.2-14.5
							c2.1,0,6.5,0.2,9.7,1.2l-0.7,6.1c-2.7-1.4-5.8-1.8-7.8-1.8c-6.9,0-12.6,2.5-12.6,9c0,5.5,4.4,8.8,10.7,8.8
							c1.1,0,2.2-0.2,3-0.5v-5.5h-5v-5.3h13.2V282.9z"/>
					</g>
				</g>
				<g>
					<g>
						<path class="st1" d="M139.8,255.9H150c9.7,0,14.3,2.9,14.3,9.1c0,5.6-4.7,9-12.7,9h-3.3v9.7h-8.5V255.9z M148.3,268.8h2.2
							c2.9,0,5.3-0.9,5.3-3.8c0-2.8-2.3-3.7-5.3-3.7h-2.2V268.8z"/>
					</g>
				</g>
			</g>
			<g>
				<g>
					<g>
						<path class="st1" d="M68.5,255.9h15.2c5.7,0,10.3,2.2,10.3,7c0,3.7-2,6.2-6.1,7v0.1c2.7,0.6,2.9,2.7,4.5,6.1l3.1,7.6h-8.9
							l-1.8-5c-1.7-4.8-2.8-6-6-6h-1.8v11h-8.5V255.9z M77.1,267.5h2.2c2.7,0,6.2-0.1,6.2-3.2c0-2.6-3-3.1-6.2-3.1h-2.2V267.5z"/>
					</g>
				</g>
				<g>
					<g>
						<path class="st1" d="M94.2,255.9h9.1l7.1,21.8h0.1l7.1-21.8h8.7l-10.9,27.8h-10.5L94.2,255.9z"/>
					</g>
				</g>
				<g>
					<g>
						<path class="st1" d="M128.3,255.9h8.5v27.8h-8.5V255.9z"/>
					</g>
				</g>
				<g>
					<g>
						<path class="st1" d="M17.5,276.9c2.2,1,5.3,1.8,8.8,1.8c2.7,0,5.3-0.5,5.3-2.7c0-5.2-15.1-1.9-15.1-12c0-6.7,7.5-8.5,13.9-8.5
							c3.1,0,6.1,0.4,8.2,1l-0.5,5.7c-2.2-0.9-4.7-1.3-7.1-1.3c-2.2,0-5.7,0.2-5.7,2.6c0,4.5,15.1,1.5,15.1,11.5c0,7.2-7,9.2-14,9.2
							c-3,0-6.7-0.4-9.5-1.2L17.5,276.9z"/>
					</g>
				</g>
				<g>
					<g>
						<path class="st1" d="M42.1,255.9h22.5v5.3h-14v5.7h13.2v5.3H50.6v6.3h14.5v5.3h-23V255.9z"/>
					</g>
				</g>
			</g>
		</g>
	</g>
</g>
</svg>
